<svg width="133" height="26" viewBox="0 0 133 26" fill="none" xmlns="http://www.w3.org/2000/svg">
<path d="M11.153 0C11.7458 0 12.2275 0.0123808 12.598 0.0371424C17.736 0.26 20.4656 2.1419 20.7867 5.68286C20.8114 5.90571 20.8238 6.12857 20.8238 6.35143C20.8238 8.15905 19.9098 9.69429 18.0819 10.9571C17.3408 11.4771 16.5133 11.8981 15.5993 12.22C20.3174 12.9876 22.6888 15.2162 22.7135 18.9057C22.6641 23.6105 19.2676 25.9752 12.5239 26H0.518742C0.197616 25.9505 0.024702 25.7771 0 25.48C0.049404 25.1581 0.222318 24.9848 0.518742 24.96C2.00086 24.96 2.74192 23.3257 2.74192 20.0571C2.76662 19.9829 2.77898 19.9333 2.77898 19.9086V6.09143C2.72957 2.77333 1.97616 1.08952 0.518742 1.04C0.197616 0.990477 0.024702 0.817143 0 0.52C0.049404 0.198095 0.222318 0.0247616 0.518742 0H11.153ZM8.92977 1.04C8.41103 1.04 8.12696 1.33714 8.07755 1.93143C8.07755 2.00571 8.0652 2.06762 8.0405 2.11714V10.92C8.0899 11.5638 8.33692 11.8981 8.78156 11.9229H10.6342C13.5737 11.8733 15.0559 10.0162 15.0806 6.35143C15.0806 3.99905 14.3272 2.40191 12.8203 1.56C12.1781 1.21333 11.4494 1.04 10.6342 1.04H8.92977ZM8.78156 12.9629C8.31222 13.0124 8.0652 13.3467 8.0405 13.9657V19.9457C8.13931 23.2143 9.15209 24.8857 11.0788 24.96H12.5239C14.5495 24.96 15.9081 23.8705 16.5997 21.6914C16.8468 20.8 16.9703 19.8714 16.9703 18.9057C16.8715 15.2162 15.0559 13.2476 11.5235 13C11.2271 12.9752 10.9306 12.9629 10.6342 12.9629H8.78156Z" fill="#171717"/>
<path d="M36.7766 0C36.9001 0 36.9989 0.0123808 37.073 0.0371424C37.3447 0.160953 37.53 0.346668 37.6288 0.594287L46.188 19.9086C47.4231 22.7314 48.5224 24.341 49.4857 24.7371C49.7575 24.861 50.0539 24.9352 50.375 24.96C50.7455 24.9848 50.9555 25.0095 51.0049 25.0343C51.1531 25.1333 51.2396 25.2819 51.2643 25.48C51.2396 25.6781 51.1655 25.8267 51.042 25.9257C50.9184 25.9752 50.7208 26 50.4491 26H40.1484C39.8767 26 39.7037 25.9752 39.6296 25.9257C39.4567 25.8267 39.3703 25.6781 39.3703 25.48C39.395 25.1581 39.5679 24.9848 39.889 24.96C41.6428 24.96 41.8652 23.4124 40.556 20.3171C40.5313 20.2676 40.5189 20.2305 40.5189 20.2057C40.1484 19.6114 39.7655 19.2895 39.3703 19.24H29.5883C29.1189 19.24 28.7484 19.5124 28.4767 20.0571C28.452 20.1067 28.4273 20.1562 28.4026 20.2057C27.0934 23.3505 27.3157 24.9352 29.0695 24.96C29.3659 25.0095 29.5389 25.1829 29.5883 25.48C29.5636 25.7029 29.4648 25.8638 29.2918 25.9629C29.193 25.9876 29.0325 26 28.8102 26H23.0299C22.8323 26 22.7211 25.9876 22.6964 25.9629C22.4741 25.8638 22.3506 25.7029 22.3259 25.48C22.3506 25.2324 22.4741 25.0714 22.6964 24.9971C22.7705 24.9724 22.8817 24.96 23.0299 24.96C23.9192 24.9352 24.6726 24.539 25.2901 23.7714C25.9077 22.979 26.6117 21.6914 27.4021 19.9086L35.9614 0.631429C36.0355 0.458095 36.0972 0.334286 36.1466 0.260001C36.2702 0.160953 36.3937 0.086667 36.5172 0.0371424C36.616 0.0123808 36.7024 0 36.7766 0ZM34.4793 6.53714L29.7365 17.1971C29.4401 17.8657 29.6253 18.2 30.2923 18.2H38.6663C39.2838 18.2 39.4691 17.8905 39.222 17.2714C39.1973 17.2467 39.185 17.2219 39.185 17.1971L34.4793 6.53714Z" fill="#171717"/>
<path d="M53.2758 0H63.0578C63.379 0.0495246 63.5519 0.222858 63.5766 0.52C63.5272 0.841905 63.3543 1.01524 63.0578 1.04C61.5757 1.04 60.8223 2.68667 60.7976 5.98C60.7976 6.02952 60.7976 6.05429 60.7976 6.05429V13.8171C60.7976 14.4857 60.8964 14.8076 61.094 14.7829C61.1928 14.7581 61.2916 14.6838 61.3904 14.56L69.5051 4.86572C71.1848 2.88476 71.6171 1.68381 70.8019 1.26286C70.5055 1.13905 70.1226 1.06476 69.6533 1.04C69.4062 1.04 69.2827 1.02762 69.2827 1.00286C69.0604 0.90381 68.9369 0.742857 68.9122 0.52C68.9369 0.198095 69.1098 0.0247616 69.431 0H76.8786C77.175 0.0495246 77.3479 0.222858 77.3974 0.52C77.3479 0.718096 77.2491 0.879048 77.1009 1.00286C77.0021 1.02762 76.8416 1.04 76.6192 1.04C74.8654 1.18857 73.0004 2.41429 71.0242 4.71714C70.9501 4.79143 70.9007 4.84095 70.876 4.86572L66.9484 9.54572C66.5779 10.0905 66.5408 10.5857 66.8372 11.0314L73.2474 19.9086C74.9765 22.3352 76.2734 23.8333 77.138 24.4029C77.7308 24.7743 78.3113 24.96 78.8795 24.96C79.1759 25.0095 79.3488 25.1829 79.3982 25.48C79.3735 25.6533 79.2994 25.7895 79.1759 25.8886C79.0524 25.9629 78.8795 26 78.6572 26H73.655C72.3211 26 71.2095 25.579 70.3202 24.7371C69.9003 24.2914 69.4557 23.7343 68.9863 23.0657L63.169 15.0429C62.922 14.6714 62.675 14.6343 62.4279 14.9314L61.3904 16.1943C60.9952 16.6648 60.7976 17.1848 60.7976 17.7543V19.9457C60.847 23.239 61.6004 24.9105 63.0578 24.96C63.379 25.0095 63.5519 25.1829 63.5766 25.48C63.5272 25.8019 63.3543 25.9752 63.0578 26H53.2758C52.9547 25.9505 52.7818 25.7771 52.7571 25.48C52.8065 25.1581 52.9794 24.9848 53.2758 24.96C54.758 24.96 55.499 23.3257 55.499 20.0571C55.5237 19.9829 55.5361 19.9333 55.5361 19.9086V6.09143C55.4867 2.77333 54.7333 1.08952 53.2758 1.04C52.9547 0.990477 52.7818 0.817143 52.7571 0.52C52.8065 0.198095 52.9794 0.0247616 53.2758 0Z" fill="#171717"/>
<path d="M81.3551 0H91.1371C91.4582 0.0495246 91.6311 0.222858 91.6558 0.52C91.6064 0.841905 91.4335 1.01524 91.1371 1.04C89.6549 1.04 88.9015 2.68667 88.8768 5.98C88.8768 6.02952 88.8768 6.05429 88.8768 6.05429V13.8171C88.8768 14.4857 88.9756 14.8076 89.1733 14.7829C89.2721 14.7581 89.3709 14.6838 89.4697 14.56L97.5843 4.86572C99.264 2.88476 99.6963 1.68381 98.8811 1.26286C98.5847 1.13905 98.2018 1.06476 97.7325 1.04C97.4855 1.04 97.362 1.02762 97.362 1.00286C97.1396 0.90381 97.0161 0.742857 96.9914 0.52C97.0161 0.198095 97.189 0.0247616 97.5102 0H104.958C105.254 0.0495246 105.427 0.222858 105.477 0.52C105.427 0.718096 105.328 0.879048 105.18 1.00286C105.081 1.02762 104.921 1.04 104.698 1.04C102.945 1.18857 101.08 2.41429 99.1035 4.71714C99.0294 4.79143 98.9799 4.84095 98.9552 4.86572L95.0276 9.54572C94.6571 10.0905 94.62 10.5857 94.9165 11.0314L101.327 19.9086C103.056 22.3352 104.353 23.8333 105.217 24.4029C105.81 24.7743 106.391 24.96 106.959 24.96C107.255 25.0095 107.428 25.1829 107.477 25.48C107.453 25.6533 107.379 25.7895 107.255 25.8886C107.132 25.9629 106.959 26 106.736 26H101.734C100.4 26 99.2887 25.579 98.3995 24.7371C97.9795 24.2914 97.5349 23.7343 97.0655 23.0657L91.2482 15.0429C91.0012 14.6714 90.7542 14.6343 90.5072 14.9314L89.4697 16.1943C89.0744 16.6648 88.8768 17.1848 88.8768 17.7543V19.9457C88.9262 23.239 89.6796 24.9105 91.1371 24.96C91.4582 25.0095 91.6311 25.1829 91.6558 25.48C91.6064 25.8019 91.4335 25.9752 91.1371 26H81.3551C81.0339 25.9505 80.861 25.7771 80.8363 25.48C80.8857 25.1581 81.0586 24.9848 81.3551 24.96C82.8372 24.96 83.5783 23.3257 83.5783 20.0571C83.603 19.9829 83.6153 19.9333 83.6153 19.9086V6.09143C83.5659 2.77333 82.8125 1.08952 81.3551 1.04C81.0339 0.990477 80.861 0.817143 80.8363 0.52C80.8857 0.198095 81.0586 0.0247616 81.3551 0Z" fill="#171717"/>
<path d="M109.434 0H120.439C123.428 0 125.812 0.817143 127.59 2.45143C128.998 3.76381 129.715 5.3981 129.739 7.35429C129.739 10.9695 128.047 13.359 124.663 14.5229C124.194 14.6714 123.724 14.8076 123.255 14.9314L126.182 18.98C126.899 19.9952 127.454 20.7629 127.85 21.2829C129.233 23.1648 130.567 24.341 131.851 24.8114C132.098 24.9105 132.308 24.96 132.481 24.96C132.802 25.0095 132.975 25.1829 133 25.48C132.975 25.7029 132.876 25.8638 132.704 25.9629C132.605 25.9876 132.444 26 132.222 26H127.257C125.923 26 124.811 25.579 123.922 24.7371C123.502 24.2914 123.057 23.7343 122.588 23.0657L117.141 15.5257C117.043 15.699 116.981 15.9467 116.956 16.2686V19.9457C117.005 23.239 117.759 24.9105 119.216 24.96C119.537 25.0095 119.71 25.1829 119.735 25.48C119.686 25.8019 119.513 25.9752 119.216 26H109.434C109.113 25.9505 108.94 25.7771 108.916 25.48C108.965 25.1581 109.138 24.9848 109.434 24.96C110.916 24.96 111.657 23.3257 111.657 20.0571C111.682 19.9829 111.695 19.9333 111.695 19.9086V6.09143C111.645 2.77333 110.892 1.08952 109.434 1.04C109.113 0.990477 108.94 0.817143 108.916 0.52C108.965 0.198095 109.138 0.0247616 109.434 0ZM117.845 1.04C117.327 1.04 117.043 1.33714 116.993 1.93143C116.993 2.00571 116.981 2.06762 116.956 2.11714V11.4771C116.956 13.0619 117.413 13.9657 118.327 14.1886C118.549 14.2133 118.772 14.2257 118.994 14.2257H119.55C121.501 14.2257 122.835 13.0371 123.551 10.66C123.823 9.66952 123.971 8.56762 123.996 7.35429C123.996 5.17524 123.44 3.47905 122.329 2.26571C121.563 1.44857 120.637 1.04 119.55 1.04H117.845Z" fill="#171717"/>
</svg>
