<svg width="47" height="47" viewBox="0 0 47 47" fill="none" xmlns="http://www.w3.org/2000/svg">
<mask id="path-1-inside-1_112_6063" fill="white">
<path d="M47 23.5C47 36.4787 36.4787 47 23.5 47C10.5213 47 0 36.4787 0 23.5C0 10.5213 10.5213 0 23.5 0C36.4787 0 47 10.5213 47 23.5Z"/>
</mask>
<path d="M45.5 23.5C45.5 35.6503 35.6503 45.5 23.5 45.5V48.5C37.3071 48.5 48.5 37.3071 48.5 23.5H45.5ZM23.5 45.5C11.3497 45.5 1.5 35.6503 1.5 23.5H-1.5C-1.5 37.3071 9.69288 48.5 23.5 48.5V45.5ZM1.5 23.5C1.5 11.3497 11.3497 1.5 23.5 1.5V-1.5C9.69288 -1.5 -1.5 9.69288 -1.5 23.5H1.5ZM23.5 1.5C35.6503 1.5 45.5 11.3497 45.5 23.5H48.5C48.5 9.69288 37.3071 -1.5 23.5 -1.5V1.5Z" fill="#171717" mask="url(#path-1-inside-1_112_6063)"/>
<path d="M28.6106 18.6405C28.469 18.3612 28.1682 18.466 28.0355 18.5533L22.9038 21.8267L18.48 24.751C16.9582 25.8683 15.5041 25.5819 14.6755 25.4057L11.6231 24.5764C9.28732 23.913 10.0835 22.9112 10.8268 22.525C18.1527 18.7191 28.7433 14.9161 33.1229 13.4903C34.8924 13.0713 34.7417 14.8856 34.627 16.0218L33.9634 20.7792L32.8574 27.2824L31.8842 32.2581C31.4468 34.0975 29.7463 33.5782 28.9645 33.2183L21.3997 28.199C19.9841 27.2213 21.2435 26.1012 21.9748 25.4057L26.3544 21.303L28.5663 19.077C28.6725 18.9373 28.6401 18.7278 28.6106 18.6405Z" fill="#171717"/>
</svg>
