<svg width="47" height="47" viewBox="0 0 47 47" fill="none" xmlns="http://www.w3.org/2000/svg">
<mask id="path-1-inside-1_112_6068" fill="white">
<path fill-rule="evenodd" clip-rule="evenodd" d="M23.5 47C36.4787 47 47 36.4787 47 23.5C47 10.5213 36.4787 0 23.5 0C10.5213 0 0 10.5213 0 23.5C0 36.4787 10.5213 47 23.5 47ZM26.9652 19.0982C27.0979 19.0109 27.3987 18.9061 27.5403 19.1855C27.5697 19.2728 27.6022 19.4823 27.496 19.6219L25.2841 21.8479L20.9045 25.9506C20.8821 25.972 20.8591 25.9937 20.8357 26.0159C20.0983 26.7148 18.9573 27.7963 20.3294 28.7439L27.8942 33.7632C28.6759 34.1231 30.3765 34.6424 30.8139 32.803L31.7871 27.8274L32.8931 21.3241L33.5567 16.5667C33.6714 15.4305 33.8221 13.6162 32.0526 14.0352C27.673 15.461 17.0823 19.264 9.7565 23.07C9.01323 23.4561 8.21701 24.4579 10.5528 25.1213L13.6052 25.9506C14.4338 26.1269 15.8879 26.4132 17.4097 25.2959L21.8335 22.3716L26.9652 19.0982Z"/>
</mask>
<path fill-rule="evenodd" clip-rule="evenodd" d="M23.5 47C36.4787 47 47 36.4787 47 23.5C47 10.5213 36.4787 0 23.5 0C10.5213 0 0 10.5213 0 23.5C0 36.4787 10.5213 47 23.5 47ZM26.9652 19.0982C27.0979 19.0109 27.3987 18.9061 27.5403 19.1855C27.5697 19.2728 27.6022 19.4823 27.496 19.6219L25.2841 21.8479L20.9045 25.9506C20.8821 25.972 20.8591 25.9937 20.8357 26.0159C20.0983 26.7148 18.9573 27.7963 20.3294 28.7439L27.8942 33.7632C28.6759 34.1231 30.3765 34.6424 30.8139 32.803L31.7871 27.8274L32.8931 21.3241L33.5567 16.5667C33.6714 15.4305 33.8221 13.6162 32.0526 14.0352C27.673 15.461 17.0823 19.264 9.7565 23.07C9.01323 23.4561 8.21701 24.4579 10.5528 25.1213L13.6052 25.9506C14.4338 26.1269 15.8879 26.4132 17.4097 25.2959L21.8335 22.3716L26.9652 19.0982Z" fill="#F7F7F7"/>
<path d="M27.5403 19.1855L28.9613 18.7054L28.9269 18.6034L28.8782 18.5074L27.5403 19.1855ZM26.9652 19.0982L27.7719 20.3628L27.7807 20.3572L27.7894 20.3514L26.9652 19.0982ZM27.496 19.6219L28.56 20.6792L28.63 20.6088L28.6902 20.5297L27.496 19.6219ZM25.2841 21.8479L26.3096 22.9426L26.3292 22.9242L26.3481 22.9052L25.2841 21.8479ZM20.9045 25.9506L19.879 24.8559L19.8709 24.8636L20.9045 25.9506ZM20.8357 26.0159L21.8676 27.1046L21.8676 27.1045L20.8357 26.0159ZM20.3294 28.7439L19.477 29.9782L19.4885 29.9861L19.5001 29.9938L20.3294 28.7439ZM27.8942 33.7632L27.0648 35.0131L27.1615 35.0772L27.2669 35.1258L27.8942 33.7632ZM30.8139 32.803L32.2732 33.15L32.2802 33.1206L32.286 33.091L30.8139 32.803ZM31.7871 27.8274L33.2592 28.1153L33.2628 28.0971L33.2659 28.0789L31.7871 27.8274ZM32.8931 21.3241L34.3719 21.5756L34.3756 21.5535L34.3787 21.5313L32.8931 21.3241ZM33.5567 16.5667L35.0423 16.7739L35.0462 16.7457L35.0491 16.7174L33.5567 16.5667ZM32.0526 14.0352L31.7069 12.5756L31.6469 12.5898L31.5882 12.6089L32.0526 14.0352ZM9.7565 23.07L10.448 24.4011L10.448 24.4011L9.7565 23.07ZM10.5528 25.1213L10.143 26.5643L10.1512 26.5666L10.1595 26.5689L10.5528 25.1213ZM13.6052 25.9506L13.212 27.3981L13.2522 27.4091L13.2931 27.4178L13.6052 25.9506ZM17.4097 25.2959L16.5825 24.0446L16.5517 24.065L16.522 24.0868L17.4097 25.2959ZM21.8335 22.3716L21.0268 21.107L21.0165 21.1136L21.0064 21.1203L21.8335 22.3716ZM45.5 23.5C45.5 35.6503 35.6503 45.5 23.5 45.5V48.5C37.3071 48.5 48.5 37.3071 48.5 23.5H45.5ZM23.5 1.5C35.6503 1.5 45.5 11.3497 45.5 23.5H48.5C48.5 9.69288 37.3071 -1.5 23.5 -1.5V1.5ZM1.5 23.5C1.5 11.3497 11.3497 1.5 23.5 1.5V-1.5C9.69288 -1.5 -1.5 9.69288 -1.5 23.5H1.5ZM23.5 45.5C11.3497 45.5 1.5 35.6503 1.5 23.5H-1.5C-1.5 37.3071 9.69288 48.5 23.5 48.5V45.5ZM28.8782 18.5074C28.7235 18.202 28.4802 17.9221 28.1421 17.7329C27.8133 17.5488 27.4828 17.4994 27.2195 17.5046C26.7395 17.5142 26.3575 17.7025 26.1409 17.845L27.7894 20.3514C27.7056 20.4066 27.5403 20.4988 27.2793 20.504C27.1254 20.5071 26.905 20.4785 26.6765 20.3505C26.4389 20.2175 26.2863 20.0293 26.2023 19.8635L28.8782 18.5074ZM28.6902 20.5297C29.0054 20.115 29.064 19.6728 29.0688 19.4114C29.0736 19.1443 29.0267 18.8987 28.9613 18.7054L26.1192 19.6656C26.0834 19.5596 26.0673 19.4623 26.0693 19.3567C26.0711 19.2568 26.0928 18.9892 26.3019 18.7142L28.6902 20.5297ZM26.3481 22.9052L28.56 20.6792L26.432 18.5646L24.2201 20.7906L26.3481 22.9052ZM21.93 27.0453L26.3096 22.9426L24.2586 20.7532L19.879 24.8559L21.93 27.0453ZM21.8676 27.1045C21.8908 27.0826 21.9147 27.0599 21.9382 27.0376L19.8709 24.8636C19.8494 24.884 19.8274 24.9049 19.8038 24.9272L21.8676 27.1045ZM21.1818 27.5097C21.0222 27.3994 21.1083 27.4058 21.1614 27.5809C21.2176 27.7662 21.1631 27.894 21.1683 27.882C21.1816 27.8513 21.235 27.7575 21.3774 27.5961C21.5153 27.4398 21.6763 27.2859 21.8676 27.1046L19.8039 24.9272C19.5007 25.2145 18.7671 25.8763 18.4147 26.6913C18.214 27.1554 18.0854 27.775 18.2905 28.4514C18.4925 29.1177 18.9506 29.6146 19.477 29.9782L21.1818 27.5097ZM28.7235 32.5133L21.1587 27.494L19.5001 29.9938L27.0648 35.0131L28.7235 32.5133ZM29.3546 32.456C29.3002 32.6848 29.2434 32.6963 29.2944 32.6516C29.3464 32.606 29.3869 32.6102 29.3407 32.6146C29.2792 32.6205 29.162 32.6143 28.9899 32.5704C28.8243 32.5281 28.6589 32.4639 28.5215 32.4007L27.2669 35.1258C27.7209 35.3348 28.6414 35.695 29.6257 35.6011C30.157 35.5504 30.7535 35.362 31.2718 34.9077C31.7891 34.4543 32.1089 33.8409 32.2732 33.15L29.3546 32.456ZM30.315 27.5394L29.3418 32.5151L32.286 33.091L33.2592 28.1153L30.315 27.5394ZM31.4143 21.0726L30.3084 27.5759L33.2659 28.0789L34.3719 21.5756L31.4143 21.0726ZM32.071 16.3595L31.4075 21.1169L34.3787 21.5313L35.0423 16.7739L32.071 16.3595ZM32.3982 15.4949C32.6256 15.441 32.5299 15.5207 32.3238 15.4066C32.1085 15.2874 32.0654 15.1201 32.079 15.1638C32.0967 15.2207 32.121 15.3631 32.1189 15.6208C32.1169 15.8671 32.093 16.1312 32.0642 16.4161L35.0491 16.7174C35.0985 16.2275 35.2209 15.1629 34.9434 14.2718C34.7878 13.7722 34.4578 13.1589 33.7766 12.7819C33.1047 12.4099 32.3643 12.42 31.7069 12.5756L32.3982 15.4949ZM10.448 24.4011C17.6634 20.6525 28.1612 16.8796 32.5169 15.4616L31.5882 12.6089C27.1848 14.0425 16.5013 17.8756 9.06497 21.7389L10.448 24.4011ZM10.9626 23.6784C10.4694 23.5383 10.2956 23.42 10.2739 23.4027C10.2715 23.4007 10.3298 23.4463 10.3899 23.5545C10.4546 23.6712 10.5 23.8231 10.5 23.9916C10.5 24.1528 10.4588 24.2766 10.4237 24.3513C10.3902 24.4227 10.3585 24.4584 10.354 24.4633C10.3511 24.4666 10.3846 24.434 10.448 24.4011L9.06499 21.7389C8.75672 21.899 8.41203 22.1364 8.12375 22.4569C7.84715 22.7643 7.49999 23.2896 7.5 23.9917C7.50001 24.7599 7.91073 25.355 8.40293 25.7478C8.86568 26.117 9.46824 26.3726 10.143 26.5643L10.9626 23.6784ZM13.9985 24.5031L10.946 23.6738L10.1595 26.5689L13.212 27.3981L13.9985 24.5031ZM16.522 24.0868C15.5553 24.7966 14.6788 24.6454 13.9173 24.4834L13.2931 27.4178C14.1888 27.6083 16.2205 28.0299 18.2974 26.505L16.522 24.0868ZM21.0064 21.1203L16.5825 24.0446L18.2369 26.5472L22.6607 23.623L21.0064 21.1203ZM26.1585 17.8336L21.0268 21.107L22.6402 23.6362L27.7719 20.3628L26.1585 17.8336Z" fill="#F7F7F7" mask="url(#path-1-inside-1_112_6068)"/>
</svg>
